<svg width="371" height="38" viewBox="0 0 371 38" fill="none" xmlns="http://www.w3.org/2000/svg">
<mask id="path-1-outside-1_141_1302" maskUnits="userSpaceOnUse" x="0" y="0.653564" width="371" height="37" fill="black">
<rect fill="white" y="0.653564" width="371" height="37"/>
<path d="M368.324 34.1406C368.324 34.4268 368.276 34.6368 368.181 34.7703C368.085 34.9039 367.952 34.9993 367.78 35.0566C367.627 35.1138 367.436 35.1425 367.207 35.1425C366.978 35.1425 366.721 35.1425 366.434 35.1425H339.699C339.508 35.1425 339.365 35.1329 339.27 35.1138C339.174 35.0947 339.098 35.047 339.041 34.9707C339.003 34.8944 338.974 34.799 338.955 34.6845C338.955 34.5509 338.955 34.3696 338.955 34.1406V4.60004C338.955 4.31379 338.955 4.0848 338.955 3.91305C338.974 3.7413 339.012 3.60772 339.069 3.51231C339.127 3.41689 339.222 3.3501 339.356 3.31193C339.508 3.27377 339.728 3.25468 340.014 3.25468H366.148C366.434 3.25468 366.702 3.25468 366.95 3.25468C367.198 3.25468 367.417 3.28331 367.608 3.34056C367.818 3.39781 367.98 3.49322 368.095 3.6268C368.209 3.76039 368.266 3.9703 368.266 4.25654C368.266 4.48554 368.209 4.66683 368.095 4.80041C367.98 4.91491 367.818 5.00078 367.608 5.05803C367.417 5.11528 367.198 5.14391 366.95 5.14391C366.702 5.14391 366.434 5.14391 366.148 5.14391H341.388V17.6815H366.005C366.425 17.6815 366.778 17.7387 367.064 17.8532C367.35 17.9677 367.494 18.2158 367.494 18.5975C367.494 19.0173 367.37 19.294 367.121 19.4276C366.892 19.5611 366.587 19.6279 366.205 19.6279H341.388V33.2532H366.205C366.492 33.2532 366.759 33.2532 367.007 33.2532C367.255 33.2532 367.474 33.2819 367.665 33.3391C367.875 33.3964 368.037 33.4918 368.152 33.6253C368.266 33.7398 368.324 33.9116 368.324 34.1406Z"/>
<path d="M296.14 19.1986C296.14 16.2216 296.588 13.6931 297.485 11.6131C298.401 9.51392 299.756 7.80599 301.55 6.48926C303.344 5.15344 305.576 4.18021 308.248 3.56955C310.939 2.95889 314.059 2.65356 317.608 2.65356C320.089 2.65356 322.494 2.88256 324.822 3.34055C327.15 3.77946 329.516 4.49508 331.921 5.4874C332.226 5.62098 332.445 5.79273 332.579 6.00264C332.712 6.19347 332.779 6.3843 332.779 6.57513C332.779 6.80413 332.693 7.0045 332.522 7.17625C332.35 7.34799 332.13 7.43387 331.863 7.43387C331.787 7.43387 331.606 7.38616 331.319 7.29074C329.125 6.37476 326.854 5.68777 324.507 5.22978C322.16 4.77178 319.86 4.54279 317.608 4.54279C314.211 4.54279 311.311 4.82903 308.906 5.40152C306.502 5.95493 304.527 6.83275 302.981 8.03498C301.454 9.21813 300.338 10.7352 299.632 12.5863C298.926 14.4183 298.573 16.6224 298.573 19.1986C298.573 21.7748 298.926 23.9884 299.632 25.8395C300.338 27.6714 301.454 29.1885 302.981 30.3908C304.527 31.5739 306.502 32.4517 308.906 33.0242C311.311 33.5776 314.211 33.8543 317.608 33.8543C319.86 33.8543 322.16 33.6253 324.507 33.1674C326.854 32.7094 329.125 32.0224 331.319 31.1064C331.472 31.0301 331.644 30.9919 331.835 30.9919C332.121 30.9919 332.35 31.0778 332.522 31.2495C332.712 31.4213 332.808 31.6216 332.808 31.8506C332.808 32.0415 332.741 32.2323 332.608 32.4231C332.474 32.6139 332.245 32.7761 331.921 32.9097C329.497 33.902 327.121 34.6272 324.793 35.0852C322.484 35.5241 320.089 35.7436 317.608 35.7436C314.059 35.7436 310.939 35.4382 308.248 34.8276C305.576 34.2169 303.344 33.2532 301.55 31.9365C299.756 30.6007 298.401 28.8928 297.485 26.8127C296.588 24.7136 296.14 22.1755 296.14 19.1986Z"/>
<path d="M290.251 13.1588C290.251 14.3229 290.079 15.3438 289.735 16.2216C289.392 17.0994 288.924 17.8628 288.333 18.5116C287.76 19.1604 287.073 19.7043 286.272 20.1432C285.489 20.5821 284.65 20.9447 283.753 21.2309C282.856 21.4981 281.921 21.6984 280.948 21.832C279.993 21.9656 279.058 22.0515 278.142 22.0896L288.676 33.1674C288.848 33.3391 288.963 33.5204 289.02 33.7112C289.096 33.883 289.144 34.0452 289.163 34.1978C289.163 34.465 289.067 34.694 288.877 34.8848C288.705 35.0566 288.476 35.1425 288.19 35.1425C287.98 35.1425 287.751 35.0947 287.503 34.9993C287.274 34.9039 287.045 34.7226 286.816 34.4555L275.337 22.2041H264.632V32.967C264.632 33.2532 264.613 33.5299 264.574 33.7971C264.555 34.0452 264.508 34.2742 264.431 34.4841C264.355 34.6749 264.24 34.8371 264.088 34.9707C263.954 35.0852 263.773 35.1425 263.544 35.1425C262.991 35.1425 262.628 34.9325 262.456 34.5127C262.284 34.0738 262.199 33.5586 262.199 32.967V4.31379C262.199 4.02755 262.199 3.81763 262.199 3.68405C262.218 3.53139 262.256 3.42643 262.313 3.36918C262.37 3.31193 262.466 3.28331 262.599 3.28331C262.752 3.26423 262.971 3.25468 263.258 3.25468H271.559C273.334 3.25468 275.022 3.27377 276.625 3.31193C278.247 3.3501 279.745 3.47414 281.119 3.68405C282.512 3.87488 283.772 4.18021 284.898 4.60004C286.024 5.00078 286.978 5.57327 287.76 6.31751C288.562 7.04267 289.172 7.95865 289.592 9.06547C290.031 10.1723 290.251 11.5367 290.251 13.1588ZM287.818 13.1588C287.818 11.2696 287.464 9.79063 286.758 8.72198C286.071 7.63424 285.041 6.83276 283.667 6.31751C282.293 5.78319 280.595 5.45878 278.572 5.34428C276.549 5.2107 274.211 5.14391 271.559 5.14391H264.632V20.3149H275.366C277.026 20.3149 278.61 20.2386 280.118 20.0859C281.625 19.9333 282.942 19.6089 284.068 19.1127C285.213 18.5975 286.119 17.8723 286.787 16.9372C287.474 16.0022 287.818 14.7427 287.818 13.1588Z"/>
<path d="M255.222 34.1406C255.222 34.4268 255.174 34.6368 255.078 34.7703C254.983 34.9039 254.849 34.9993 254.678 35.0566C254.525 35.1138 254.334 35.1425 254.105 35.1425C253.876 35.1425 253.619 35.1425 253.332 35.1425H226.597C226.406 35.1425 226.263 35.1329 226.168 35.1138C226.072 35.0947 225.996 35.047 225.939 34.9707C225.9 34.8944 225.872 34.799 225.853 34.6845C225.853 34.5509 225.853 34.3696 225.853 34.1406V4.60004C225.853 4.31379 225.853 4.0848 225.853 3.91305C225.872 3.7413 225.91 3.60772 225.967 3.51231C226.024 3.41689 226.12 3.3501 226.253 3.31193C226.406 3.27377 226.626 3.25468 226.912 3.25468H253.046C253.332 3.25468 253.599 3.25468 253.848 3.25468C254.096 3.25468 254.315 3.28331 254.506 3.34056C254.716 3.39781 254.878 3.49322 254.993 3.6268C255.107 3.76039 255.164 3.9703 255.164 4.25654C255.164 4.48554 255.107 4.66683 254.993 4.80041C254.878 4.91491 254.716 5.00078 254.506 5.05803C254.315 5.11528 254.096 5.14391 253.848 5.14391C253.599 5.14391 253.332 5.14391 253.046 5.14391H228.286V17.6815H252.903C253.323 17.6815 253.676 17.7387 253.962 17.8532C254.248 17.9677 254.391 18.2158 254.391 18.5975C254.391 19.0173 254.267 19.294 254.019 19.4276C253.79 19.5611 253.485 19.6279 253.103 19.6279H228.286V33.2532H253.103C253.39 33.2532 253.657 33.2532 253.905 33.2532C254.153 33.2532 254.372 33.2819 254.563 33.3391C254.773 33.3964 254.935 33.4918 255.05 33.6253C255.164 33.7398 255.222 33.9116 255.222 34.1406Z"/>
<path d="M196.863 31.1636L214.611 4.48554C214.897 4.04663 215.183 3.73176 215.469 3.54093C215.775 3.3501 216.07 3.25468 216.357 3.25468C216.719 3.25468 217.015 3.40735 217.244 3.71268C217.492 3.99892 217.616 4.3615 217.616 4.80041V33.1387C217.616 33.6921 217.549 34.1692 217.416 34.57C217.282 34.9516 216.939 35.1425 216.385 35.1425C215.908 35.1425 215.584 34.9516 215.412 34.57C215.259 34.1692 215.183 33.6921 215.183 33.1387V7.72012L198.266 32.6807C197.808 33.3296 197.34 33.654 196.863 33.654C196.348 33.654 195.881 33.3296 195.461 32.6807L178.544 7.72012V33.1387C178.544 33.6921 178.458 34.1692 178.286 34.57C178.133 34.9516 177.819 35.1425 177.341 35.1425C176.788 35.1425 176.445 34.9516 176.311 34.57C176.177 34.1692 176.111 33.6921 176.111 33.1387V4.80041C176.111 4.3615 176.225 3.99892 176.454 3.71268C176.702 3.40735 177.008 3.25468 177.37 3.25468C177.637 3.25468 177.914 3.3501 178.2 3.54093C178.506 3.73176 178.811 4.04663 179.116 4.48554L196.863 31.1636Z"/>
<path d="M147.179 31.1636L164.926 4.48554C165.212 4.04663 165.498 3.73176 165.785 3.54093C166.09 3.3501 166.386 3.25468 166.672 3.25468C167.034 3.25468 167.33 3.40735 167.559 3.71268C167.807 3.99892 167.931 4.3615 167.931 4.80041V33.1387C167.931 33.6921 167.865 34.1692 167.731 34.57C167.597 34.9516 167.254 35.1425 166.7 35.1425C166.223 35.1425 165.899 34.9516 165.727 34.57C165.575 34.1692 165.498 33.6921 165.498 33.1387V7.72012L148.581 32.6807C148.123 33.3296 147.656 33.654 147.179 33.654C146.663 33.654 146.196 33.3296 145.776 32.6807L128.859 7.72012V33.1387C128.859 33.6921 128.773 34.1692 128.601 34.57C128.449 34.9516 128.134 35.1425 127.657 35.1425C127.103 35.1425 126.76 34.9516 126.626 34.57C126.493 34.1692 126.426 33.6921 126.426 33.1387V4.80041C126.426 4.3615 126.54 3.99892 126.769 3.71268C127.017 3.40735 127.323 3.25468 127.685 3.25468C127.952 3.25468 128.229 3.3501 128.515 3.54093C128.821 3.73176 129.126 4.04663 129.431 4.48554L147.179 31.1636Z"/>
<path d="M118.875 19.2343C118.875 22.0201 118.455 24.453 117.616 26.5328C116.795 28.5935 115.517 30.3108 113.78 31.6846C112.063 33.0584 109.878 34.0888 107.226 34.7757C104.593 35.4435 101.464 35.7774 97.8382 35.7774C94.2129 35.7774 91.0741 35.4435 88.4219 34.7757C85.7887 34.0888 83.6135 33.0584 81.8962 31.6846C80.1789 30.3108 78.9005 28.5935 78.061 26.5328C77.2405 24.453 76.8303 22.0201 76.8303 19.2343C76.8303 16.4485 77.2405 14.0253 78.061 11.9645C78.9005 9.88474 80.1789 8.15792 81.8962 6.7841C83.6135 5.41028 85.7887 4.38946 88.4219 3.72163C91.0741 3.03472 94.2129 2.69126 97.8382 2.69126C101.464 2.69126 104.593 3.03472 107.226 3.72163C109.878 4.38946 112.063 5.41028 113.78 6.7841C115.517 8.15792 116.795 9.88474 117.616 11.9645C118.455 14.0253 118.875 16.4485 118.875 19.2343ZM79.2631 19.2343C79.2631 21.9057 79.6447 24.1667 80.4079 26.0176C81.1711 27.8684 82.316 29.3853 83.8425 30.5684C85.388 31.7323 87.3247 32.5814 89.6526 33.1156C91.9804 33.6308 94.709 33.8884 97.8382 33.8884C100.968 33.8884 103.696 33.6308 106.024 33.1156C108.352 32.5814 110.288 31.7323 111.834 30.5684C113.38 29.3853 114.534 27.8684 115.297 26.0176C116.06 24.1667 116.442 21.9057 116.442 19.2343C116.442 16.5821 116.06 14.3306 115.297 12.4797C114.534 10.6098 113.38 9.09288 111.834 7.92895C110.288 6.74594 108.352 5.89684 106.024 5.38166C103.696 4.8474 100.968 4.58027 97.8382 4.58027C94.709 4.58027 91.9804 4.8474 89.6526 5.38166C87.3247 5.89684 85.388 6.74594 83.8425 7.92895C82.316 9.09288 81.1711 10.6098 80.4079 12.4797C79.6447 14.3306 79.2631 16.5821 79.2631 19.2343Z"/>
<path d="M34.9908 19.2343C34.9908 16.2577 35.4392 13.7295 36.336 11.6497C37.2519 9.55082 38.6066 7.84309 40.4002 6.52651C42.1938 5.19085 44.4263 4.21773 47.0976 3.60714C49.788 2.99656 52.9077 2.69126 56.4568 2.69126C58.9373 2.69126 61.3415 2.92023 63.6693 3.37817C65.9972 3.81703 68.3632 4.53256 70.7674 5.52477C71.0727 5.65833 71.2921 5.83006 71.4257 6.03995C71.5592 6.23076 71.626 6.42157 71.626 6.61237C71.626 6.84134 71.5402 7.04169 71.3684 7.21342C71.1967 7.38515 70.9773 7.47101 70.7101 7.47101C70.6338 7.47101 70.4526 7.42331 70.1663 7.32791C67.972 6.41203 65.7014 5.72511 63.3545 5.26717C61.0075 4.80923 58.7083 4.58026 56.4568 4.58026C53.0604 4.58026 50.1601 4.86648 47.7559 5.4389C45.3517 5.99225 43.3769 6.86997 41.8313 8.07206C40.3048 9.25507 39.1886 10.772 38.4826 12.6228C37.7766 14.4546 37.4236 16.6584 37.4236 19.2343C37.4236 21.8103 37.7766 24.0236 38.4826 25.8745C39.1886 27.7062 40.3048 29.2232 41.8313 30.4253C43.3769 31.6083 45.3517 32.486 47.7559 33.0584C50.1601 33.6117 53.0604 33.8884 56.4568 33.8884C58.7083 33.8884 61.0075 33.6595 63.3545 33.2015C65.7014 32.7436 67.972 32.0567 70.1663 31.1408C70.319 31.0645 70.4907 31.0263 70.6815 31.0263C70.9677 31.0263 71.1967 31.1122 71.3684 31.2839C71.5592 31.4556 71.6546 31.656 71.6546 31.8849C71.6546 32.0757 71.5879 32.2666 71.4543 32.4574C71.3207 32.6482 71.0918 32.8104 70.7674 32.9439C68.3441 33.9361 65.9686 34.6612 63.6407 35.1191C61.3319 35.558 58.9373 35.7774 56.4568 35.7774C52.9077 35.7774 49.788 35.4721 47.0976 34.8615C44.4263 34.251 42.1938 33.2874 40.4002 31.9708C38.6066 30.6351 37.2519 28.9274 36.336 26.8476C35.4392 24.7487 34.9908 22.211 34.9908 19.2343Z"/>
<path d="M31.2223 34.8043C31.3177 34.6707 31.3654 34.4609 31.3654 34.1746C31.3654 33.9457 31.3082 33.774 31.1937 33.6595C31.0792 33.5259 30.917 33.4305 30.7071 33.3733C30.5163 33.316 30.2969 33.2874 30.0488 33.2874H4.43281V5.18132H29.9916C30.2396 5.18132 30.4591 5.1527 30.6499 5.09546C30.8598 5.03821 31.0219 4.95235 31.1364 4.83787C31.2509 4.7043 31.3082 4.52303 31.3082 4.29406C31.3082 4.00785 31.2509 3.79796 31.1364 3.66439C31.0219 3.53083 30.8598 3.43543 30.6499 3.37818C30.4591 3.32094 30.2396 3.29232 29.9916 3.29232H3.05899C2.77277 3.29232 2.55334 3.3114 2.4007 3.34956C2.26713 3.38772 2.17173 3.45451 2.11449 3.54991C2.05724 3.64531 2.01908 3.77888 2 3.95061V34.7184C2.01908 34.8329 2.0477 34.9283 2.08586 35.0047C2.14311 35.081 2.21943 35.1287 2.31483 35.1478C2.41024 35.1668 2.55334 35.1764 2.74415 35.1764H30.2492C30.4781 35.1764 30.669 35.1478 30.8216 35.0905C30.9933 35.0333 31.1269 34.9379 31.2223 34.8043Z"/>
<path d="M35.6776 17.8892C35.3914 17.7747 35.0384 17.7174 34.6186 17.7174H17.2406C17.0084 17.746 16.5441 17.9693 16.5441 18.6333C16.5441 19.2973 17.0084 19.5969 17.2406 19.6637H34.819C35.2006 19.6637 35.5059 19.5969 35.7348 19.4633C35.9829 19.3298 36.1069 19.0531 36.1069 18.6333C36.1069 18.2517 35.9638 18.0036 35.6776 17.8892Z"/>
</mask>
<path d="M368.324 34.1406C368.324 34.4268 368.276 34.6368 368.181 34.7703C368.085 34.9039 367.952 34.9993 367.78 35.0566C367.627 35.1138 367.436 35.1425 367.207 35.1425C366.978 35.1425 366.721 35.1425 366.434 35.1425H339.699C339.508 35.1425 339.365 35.1329 339.27 35.1138C339.174 35.0947 339.098 35.047 339.041 34.9707C339.003 34.8944 338.974 34.799 338.955 34.6845C338.955 34.5509 338.955 34.3696 338.955 34.1406V4.60004C338.955 4.31379 338.955 4.0848 338.955 3.91305C338.974 3.7413 339.012 3.60772 339.069 3.51231C339.127 3.41689 339.222 3.3501 339.356 3.31193C339.508 3.27377 339.728 3.25468 340.014 3.25468H366.148C366.434 3.25468 366.702 3.25468 366.95 3.25468C367.198 3.25468 367.417 3.28331 367.608 3.34056C367.818 3.39781 367.98 3.49322 368.095 3.6268C368.209 3.76039 368.266 3.9703 368.266 4.25654C368.266 4.48554 368.209 4.66683 368.095 4.80041C367.98 4.91491 367.818 5.00078 367.608 5.05803C367.417 5.11528 367.198 5.14391 366.95 5.14391C366.702 5.14391 366.434 5.14391 366.148 5.14391H341.388V17.6815H366.005C366.425 17.6815 366.778 17.7387 367.064 17.8532C367.35 17.9677 367.494 18.2158 367.494 18.5975C367.494 19.0173 367.37 19.294 367.121 19.4276C366.892 19.5611 366.587 19.6279 366.205 19.6279H341.388V33.2532H366.205C366.492 33.2532 366.759 33.2532 367.007 33.2532C367.255 33.2532 367.474 33.2819 367.665 33.3391C367.875 33.3964 368.037 33.4918 368.152 33.6253C368.266 33.7398 368.324 33.9116 368.324 34.1406Z" fill="#FAFBFF"/>
<path d="M296.14 19.1986C296.14 16.2216 296.588 13.6931 297.485 11.6131C298.401 9.51392 299.756 7.80599 301.55 6.48926C303.344 5.15344 305.576 4.18021 308.248 3.56955C310.939 2.95889 314.059 2.65356 317.608 2.65356C320.089 2.65356 322.494 2.88256 324.822 3.34055C327.15 3.77946 329.516 4.49508 331.921 5.4874C332.226 5.62098 332.445 5.79273 332.579 6.00264C332.712 6.19347 332.779 6.3843 332.779 6.57513C332.779 6.80413 332.693 7.0045 332.522 7.17625C332.35 7.34799 332.13 7.43387 331.863 7.43387C331.787 7.43387 331.606 7.38616 331.319 7.29074C329.125 6.37476 326.854 5.68777 324.507 5.22978C322.16 4.77178 319.86 4.54279 317.608 4.54279C314.211 4.54279 311.311 4.82903 308.906 5.40152C306.502 5.95493 304.527 6.83275 302.981 8.03498C301.454 9.21813 300.338 10.7352 299.632 12.5863C298.926 14.4183 298.573 16.6224 298.573 19.1986C298.573 21.7748 298.926 23.9884 299.632 25.8395C300.338 27.6714 301.454 29.1885 302.981 30.3908C304.527 31.5739 306.502 32.4517 308.906 33.0242C311.311 33.5776 314.211 33.8543 317.608 33.8543C319.86 33.8543 322.16 33.6253 324.507 33.1674C326.854 32.7094 329.125 32.0224 331.319 31.1064C331.472 31.0301 331.644 30.9919 331.835 30.9919C332.121 30.9919 332.35 31.0778 332.522 31.2495C332.712 31.4213 332.808 31.6216 332.808 31.8506C332.808 32.0415 332.741 32.2323 332.608 32.4231C332.474 32.6139 332.245 32.7761 331.921 32.9097C329.497 33.902 327.121 34.6272 324.793 35.0852C322.484 35.5241 320.089 35.7436 317.608 35.7436C314.059 35.7436 310.939 35.4382 308.248 34.8276C305.576 34.2169 303.344 33.2532 301.55 31.9365C299.756 30.6007 298.401 28.8928 297.485 26.8127C296.588 24.7136 296.14 22.1755 296.14 19.1986Z" fill="#FAFBFF"/>
<path d="M290.251 13.1588C290.251 14.3229 290.079 15.3438 289.735 16.2216C289.392 17.0994 288.924 17.8628 288.333 18.5116C287.76 19.1604 287.073 19.7043 286.272 20.1432C285.489 20.5821 284.65 20.9447 283.753 21.2309C282.856 21.4981 281.921 21.6984 280.948 21.832C279.993 21.9656 279.058 22.0515 278.142 22.0896L288.676 33.1674C288.848 33.3391 288.963 33.5204 289.02 33.7112C289.096 33.883 289.144 34.0452 289.163 34.1978C289.163 34.465 289.067 34.694 288.877 34.8848C288.705 35.0566 288.476 35.1425 288.19 35.1425C287.98 35.1425 287.751 35.0947 287.503 34.9993C287.274 34.9039 287.045 34.7226 286.816 34.4555L275.337 22.2041H264.632V32.967C264.632 33.2532 264.613 33.5299 264.574 33.7971C264.555 34.0452 264.508 34.2742 264.431 34.4841C264.355 34.6749 264.24 34.8371 264.088 34.9707C263.954 35.0852 263.773 35.1425 263.544 35.1425C262.991 35.1425 262.628 34.9325 262.456 34.5127C262.284 34.0738 262.199 33.5586 262.199 32.967V4.31379C262.199 4.02755 262.199 3.81763 262.199 3.68405C262.218 3.53139 262.256 3.42643 262.313 3.36918C262.37 3.31193 262.466 3.28331 262.599 3.28331C262.752 3.26423 262.971 3.25468 263.258 3.25468H271.559C273.334 3.25468 275.022 3.27377 276.625 3.31193C278.247 3.3501 279.745 3.47414 281.119 3.68405C282.512 3.87488 283.772 4.18021 284.898 4.60004C286.024 5.00078 286.978 5.57327 287.76 6.31751C288.562 7.04267 289.172 7.95865 289.592 9.06547C290.031 10.1723 290.251 11.5367 290.251 13.1588ZM287.818 13.1588C287.818 11.2696 287.464 9.79063 286.758 8.72198C286.071 7.63424 285.041 6.83276 283.667 6.31751C282.293 5.78319 280.595 5.45878 278.572 5.34428C276.549 5.2107 274.211 5.14391 271.559 5.14391H264.632V20.3149H275.366C277.026 20.3149 278.61 20.2386 280.118 20.0859C281.625 19.9333 282.942 19.6089 284.068 19.1127C285.213 18.5975 286.119 17.8723 286.787 16.9372C287.474 16.0022 287.818 14.7427 287.818 13.1588Z" fill="#FAFBFF"/>
<path d="M255.222 34.1406C255.222 34.4268 255.174 34.6368 255.078 34.7703C254.983 34.9039 254.849 34.9993 254.678 35.0566C254.525 35.1138 254.334 35.1425 254.105 35.1425C253.876 35.1425 253.619 35.1425 253.332 35.1425H226.597C226.406 35.1425 226.263 35.1329 226.168 35.1138C226.072 35.0947 225.996 35.047 225.939 34.9707C225.9 34.8944 225.872 34.799 225.853 34.6845C225.853 34.5509 225.853 34.3696 225.853 34.1406V4.60004C225.853 4.31379 225.853 4.0848 225.853 3.91305C225.872 3.7413 225.91 3.60772 225.967 3.51231C226.024 3.41689 226.12 3.3501 226.253 3.31193C226.406 3.27377 226.626 3.25468 226.912 3.25468H253.046C253.332 3.25468 253.599 3.25468 253.848 3.25468C254.096 3.25468 254.315 3.28331 254.506 3.34056C254.716 3.39781 254.878 3.49322 254.993 3.6268C255.107 3.76039 255.164 3.9703 255.164 4.25654C255.164 4.48554 255.107 4.66683 254.993 4.80041C254.878 4.91491 254.716 5.00078 254.506 5.05803C254.315 5.11528 254.096 5.14391 253.848 5.14391C253.599 5.14391 253.332 5.14391 253.046 5.14391H228.286V17.6815H252.903C253.323 17.6815 253.676 17.7387 253.962 17.8532C254.248 17.9677 254.391 18.2158 254.391 18.5975C254.391 19.0173 254.267 19.294 254.019 19.4276C253.79 19.5611 253.485 19.6279 253.103 19.6279H228.286V33.2532H253.103C253.39 33.2532 253.657 33.2532 253.905 33.2532C254.153 33.2532 254.372 33.2819 254.563 33.3391C254.773 33.3964 254.935 33.4918 255.05 33.6253C255.164 33.7398 255.222 33.9116 255.222 34.1406Z" fill="#FAFBFF"/>
<path d="M196.863 31.1636L214.611 4.48554C214.897 4.04663 215.183 3.73176 215.469 3.54093C215.775 3.3501 216.07 3.25468 216.357 3.25468C216.719 3.25468 217.015 3.40735 217.244 3.71268C217.492 3.99892 217.616 4.3615 217.616 4.80041V33.1387C217.616 33.6921 217.549 34.1692 217.416 34.57C217.282 34.9516 216.939 35.1425 216.385 35.1425C215.908 35.1425 215.584 34.9516 215.412 34.57C215.259 34.1692 215.183 33.6921 215.183 33.1387V7.72012L198.266 32.6807C197.808 33.3296 197.34 33.654 196.863 33.654C196.348 33.654 195.881 33.3296 195.461 32.6807L178.544 7.72012V33.1387C178.544 33.6921 178.458 34.1692 178.286 34.57C178.133 34.9516 177.819 35.1425 177.341 35.1425C176.788 35.1425 176.445 34.9516 176.311 34.57C176.177 34.1692 176.111 33.6921 176.111 33.1387V4.80041C176.111 4.3615 176.225 3.99892 176.454 3.71268C176.702 3.40735 177.008 3.25468 177.37 3.25468C177.637 3.25468 177.914 3.3501 178.2 3.54093C178.506 3.73176 178.811 4.04663 179.116 4.48554L196.863 31.1636Z" fill="#FAFBFF"/>
<path d="M147.179 31.1636L164.926 4.48554C165.212 4.04663 165.498 3.73176 165.785 3.54093C166.09 3.3501 166.386 3.25468 166.672 3.25468C167.034 3.25468 167.33 3.40735 167.559 3.71268C167.807 3.99892 167.931 4.3615 167.931 4.80041V33.1387C167.931 33.6921 167.865 34.1692 167.731 34.57C167.597 34.9516 167.254 35.1425 166.7 35.1425C166.223 35.1425 165.899 34.9516 165.727 34.57C165.575 34.1692 165.498 33.6921 165.498 33.1387V7.72012L148.581 32.6807C148.123 33.3296 147.656 33.654 147.179 33.654C146.663 33.654 146.196 33.3296 145.776 32.6807L128.859 7.72012V33.1387C128.859 33.6921 128.773 34.1692 128.601 34.57C128.449 34.9516 128.134 35.1425 127.657 35.1425C127.103 35.1425 126.76 34.9516 126.626 34.57C126.493 34.1692 126.426 33.6921 126.426 33.1387V4.80041C126.426 4.3615 126.54 3.99892 126.769 3.71268C127.017 3.40735 127.323 3.25468 127.685 3.25468C127.952 3.25468 128.229 3.3501 128.515 3.54093C128.821 3.73176 129.126 4.04663 129.431 4.48554L147.179 31.1636Z" fill="#FAFBFF"/>
<path d="M118.875 19.2343C118.875 22.0201 118.455 24.453 117.616 26.5328C116.795 28.5935 115.517 30.3108 113.78 31.6846C112.063 33.0584 109.878 34.0888 107.226 34.7757C104.593 35.4435 101.464 35.7774 97.8382 35.7774C94.2129 35.7774 91.0741 35.4435 88.4219 34.7757C85.7887 34.0888 83.6135 33.0584 81.8962 31.6846C80.1789 30.3108 78.9005 28.5935 78.061 26.5328C77.2405 24.453 76.8303 22.0201 76.8303 19.2343C76.8303 16.4485 77.2405 14.0253 78.061 11.9645C78.9005 9.88474 80.1789 8.15792 81.8962 6.7841C83.6135 5.41028 85.7887 4.38946 88.4219 3.72163C91.0741 3.03472 94.2129 2.69126 97.8382 2.69126C101.464 2.69126 104.593 3.03472 107.226 3.72163C109.878 4.38946 112.063 5.41028 113.78 6.7841C115.517 8.15792 116.795 9.88474 117.616 11.9645C118.455 14.0253 118.875 16.4485 118.875 19.2343ZM79.2631 19.2343C79.2631 21.9057 79.6447 24.1667 80.4079 26.0176C81.1711 27.8684 82.316 29.3853 83.8425 30.5684C85.388 31.7323 87.3247 32.5814 89.6526 33.1156C91.9804 33.6308 94.709 33.8884 97.8382 33.8884C100.968 33.8884 103.696 33.6308 106.024 33.1156C108.352 32.5814 110.288 31.7323 111.834 30.5684C113.38 29.3853 114.534 27.8684 115.297 26.0176C116.06 24.1667 116.442 21.9057 116.442 19.2343C116.442 16.5821 116.06 14.3306 115.297 12.4797C114.534 10.6098 113.38 9.09288 111.834 7.92895C110.288 6.74594 108.352 5.89684 106.024 5.38166C103.696 4.8474 100.968 4.58027 97.8382 4.58027C94.709 4.58027 91.9804 4.8474 89.6526 5.38166C87.3247 5.89684 85.388 6.74594 83.8425 7.92895C82.316 9.09288 81.1711 10.6098 80.4079 12.4797C79.6447 14.3306 79.2631 16.5821 79.2631 19.2343Z" fill="#FAFBFF"/>
<path d="M34.9908 19.2343C34.9908 16.2577 35.4392 13.7295 36.336 11.6497C37.2519 9.55082 38.6066 7.84309 40.4002 6.52651C42.1938 5.19085 44.4263 4.21773 47.0976 3.60714C49.788 2.99656 52.9077 2.69126 56.4568 2.69126C58.9373 2.69126 61.3415 2.92023 63.6693 3.37817C65.9972 3.81703 68.3632 4.53256 70.7674 5.52477C71.0727 5.65833 71.2921 5.83006 71.4257 6.03995C71.5592 6.23076 71.626 6.42157 71.626 6.61237C71.626 6.84134 71.5402 7.04169 71.3684 7.21342C71.1967 7.38515 70.9773 7.47101 70.7101 7.47101C70.6338 7.47101 70.4526 7.42331 70.1663 7.32791C67.972 6.41203 65.7014 5.72511 63.3545 5.26717C61.0075 4.80923 58.7083 4.58026 56.4568 4.58026C53.0604 4.58026 50.1601 4.86648 47.7559 5.4389C45.3517 5.99225 43.3769 6.86997 41.8313 8.07206C40.3048 9.25507 39.1886 10.772 38.4826 12.6228C37.7766 14.4546 37.4236 16.6584 37.4236 19.2343C37.4236 21.8103 37.7766 24.0236 38.4826 25.8745C39.1886 27.7062 40.3048 29.2232 41.8313 30.4253C43.3769 31.6083 45.3517 32.486 47.7559 33.0584C50.1601 33.6117 53.0604 33.8884 56.4568 33.8884C58.7083 33.8884 61.0075 33.6595 63.3545 33.2015C65.7014 32.7436 67.972 32.0567 70.1663 31.1408C70.319 31.0645 70.4907 31.0263 70.6815 31.0263C70.9677 31.0263 71.1967 31.1122 71.3684 31.2839C71.5592 31.4556 71.6546 31.656 71.6546 31.8849C71.6546 32.0757 71.5879 32.2666 71.4543 32.4574C71.3207 32.6482 71.0918 32.8104 70.7674 32.9439C68.3441 33.9361 65.9686 34.6612 63.6407 35.1191C61.3319 35.558 58.9373 35.7774 56.4568 35.7774C52.9077 35.7774 49.788 35.4721 47.0976 34.8615C44.4263 34.251 42.1938 33.2874 40.4002 31.9708C38.6066 30.6351 37.2519 28.9274 36.336 26.8476C35.4392 24.7487 34.9908 22.211 34.9908 19.2343Z" fill="#FAFBFF"/>
<path d="M31.2223 34.8043C31.3177 34.6707 31.3654 34.4609 31.3654 34.1746C31.3654 33.9457 31.3082 33.774 31.1937 33.6595C31.0792 33.5259 30.917 33.4305 30.7071 33.3733C30.5163 33.316 30.2969 33.2874 30.0488 33.2874H4.43281V5.18132H29.9916C30.2396 5.18132 30.4591 5.1527 30.6499 5.09546C30.8598 5.03821 31.0219 4.95235 31.1364 4.83787C31.2509 4.7043 31.3082 4.52303 31.3082 4.29406C31.3082 4.00785 31.2509 3.79796 31.1364 3.66439C31.0219 3.53083 30.8598 3.43543 30.6499 3.37818C30.4591 3.32094 30.2396 3.29232 29.9916 3.29232H3.05899C2.77277 3.29232 2.55334 3.3114 2.4007 3.34956C2.26713 3.38772 2.17173 3.45451 2.11449 3.54991C2.05724 3.64531 2.01908 3.77888 2 3.95061V34.7184C2.01908 34.8329 2.0477 34.9283 2.08586 35.0047C2.14311 35.081 2.21943 35.1287 2.31483 35.1478C2.41024 35.1668 2.55334 35.1764 2.74415 35.1764H30.2492C30.4781 35.1764 30.669 35.1478 30.8216 35.0905C30.9933 35.0333 31.1269 34.9379 31.2223 34.8043Z" fill="#FAFBFF"/>
<path d="M35.6776 17.8892C35.3914 17.7747 35.0384 17.7174 34.6186 17.7174H17.2406C17.0084 17.746 16.5441 17.9693 16.5441 18.6333C16.5441 19.2973 17.0084 19.5969 17.2406 19.6637H34.819C35.2006 19.6637 35.5059 19.5969 35.7348 19.4633C35.9829 19.3298 36.1069 19.0531 36.1069 18.6333C36.1069 18.2517 35.9638 18.0036 35.6776 17.8892Z" fill="#FAFBFF"/>
<path d="M368.324 34.1406C368.324 34.4268 368.276 34.6368 368.181 34.7703C368.085 34.9039 367.952 34.9993 367.78 35.0566C367.627 35.1138 367.436 35.1425 367.207 35.1425C366.978 35.1425 366.721 35.1425 366.434 35.1425H339.699C339.508 35.1425 339.365 35.1329 339.27 35.1138C339.174 35.0947 339.098 35.047 339.041 34.9707C339.003 34.8944 338.974 34.799 338.955 34.6845C338.955 34.5509 338.955 34.3696 338.955 34.1406V4.60004C338.955 4.31379 338.955 4.0848 338.955 3.91305C338.974 3.7413 339.012 3.60772 339.069 3.51231C339.127 3.41689 339.222 3.3501 339.356 3.31193C339.508 3.27377 339.728 3.25468 340.014 3.25468H366.148C366.434 3.25468 366.702 3.25468 366.95 3.25468C367.198 3.25468 367.417 3.28331 367.608 3.34056C367.818 3.39781 367.98 3.49322 368.095 3.6268C368.209 3.76039 368.266 3.9703 368.266 4.25654C368.266 4.48554 368.209 4.66683 368.095 4.80041C367.98 4.91491 367.818 5.00078 367.608 5.05803C367.417 5.11528 367.198 5.14391 366.95 5.14391C366.702 5.14391 366.434 5.14391 366.148 5.14391H341.388V17.6815H366.005C366.425 17.6815 366.778 17.7387 367.064 17.8532C367.35 17.9677 367.494 18.2158 367.494 18.5975C367.494 19.0173 367.37 19.294 367.121 19.4276C366.892 19.5611 366.587 19.6279 366.205 19.6279H341.388V33.2532H366.205C366.492 33.2532 366.759 33.2532 367.007 33.2532C367.255 33.2532 367.474 33.2819 367.665 33.3391C367.875 33.3964 368.037 33.4918 368.152 33.6253C368.266 33.7398 368.324 33.9116 368.324 34.1406Z" stroke="#FAFBFF" stroke-width="3.4822" mask="url(#path-1-outside-1_141_1302)"/>
<path d="M296.14 19.1986C296.14 16.2216 296.588 13.6931 297.485 11.6131C298.401 9.51392 299.756 7.80599 301.55 6.48926C303.344 5.15344 305.576 4.18021 308.248 3.56955C310.939 2.95889 314.059 2.65356 317.608 2.65356C320.089 2.65356 322.494 2.88256 324.822 3.34055C327.15 3.77946 329.516 4.49508 331.921 5.4874C332.226 5.62098 332.445 5.79273 332.579 6.00264C332.712 6.19347 332.779 6.3843 332.779 6.57513C332.779 6.80413 332.693 7.0045 332.522 7.17625C332.35 7.34799 332.13 7.43387 331.863 7.43387C331.787 7.43387 331.606 7.38616 331.319 7.29074C329.125 6.37476 326.854 5.68777 324.507 5.22978C322.16 4.77178 319.86 4.54279 317.608 4.54279C314.211 4.54279 311.311 4.82903 308.906 5.40152C306.502 5.95493 304.527 6.83275 302.981 8.03498C301.454 9.21813 300.338 10.7352 299.632 12.5863C298.926 14.4183 298.573 16.6224 298.573 19.1986C298.573 21.7748 298.926 23.9884 299.632 25.8395C300.338 27.6714 301.454 29.1885 302.981 30.3908C304.527 31.5739 306.502 32.4517 308.906 33.0242C311.311 33.5776 314.211 33.8543 317.608 33.8543C319.86 33.8543 322.16 33.6253 324.507 33.1674C326.854 32.7094 329.125 32.0224 331.319 31.1064C331.472 31.0301 331.644 30.9919 331.835 30.9919C332.121 30.9919 332.35 31.0778 332.522 31.2495C332.712 31.4213 332.808 31.6216 332.808 31.8506C332.808 32.0415 332.741 32.2323 332.608 32.4231C332.474 32.6139 332.245 32.7761 331.921 32.9097C329.497 33.902 327.121 34.6272 324.793 35.0852C322.484 35.5241 320.089 35.7436 317.608 35.7436C314.059 35.7436 310.939 35.4382 308.248 34.8276C305.576 34.2169 303.344 33.2532 301.55 31.9365C299.756 30.6007 298.401 28.8928 297.485 26.8127C296.588 24.7136 296.14 22.1755 296.14 19.1986Z" stroke="#FAFBFF" stroke-width="3.4822" mask="url(#path-1-outside-1_141_1302)"/>
<path d="M290.251 13.1588C290.251 14.3229 290.079 15.3438 289.735 16.2216C289.392 17.0994 288.924 17.8628 288.333 18.5116C287.76 19.1604 287.073 19.7043 286.272 20.1432C285.489 20.5821 284.65 20.9447 283.753 21.2309C282.856 21.4981 281.921 21.6984 280.948 21.832C279.993 21.9656 279.058 22.0515 278.142 22.0896L288.676 33.1674C288.848 33.3391 288.963 33.5204 289.02 33.7112C289.096 33.883 289.144 34.0452 289.163 34.1978C289.163 34.465 289.067 34.694 288.877 34.8848C288.705 35.0566 288.476 35.1425 288.19 35.1425C287.98 35.1425 287.751 35.0947 287.503 34.9993C287.274 34.9039 287.045 34.7226 286.816 34.4555L275.337 22.2041H264.632V32.967C264.632 33.2532 264.613 33.5299 264.574 33.7971C264.555 34.0452 264.508 34.2742 264.431 34.4841C264.355 34.6749 264.24 34.8371 264.088 34.9707C263.954 35.0852 263.773 35.1425 263.544 35.1425C262.991 35.1425 262.628 34.9325 262.456 34.5127C262.284 34.0738 262.199 33.5586 262.199 32.967V4.31379C262.199 4.02755 262.199 3.81763 262.199 3.68405C262.218 3.53139 262.256 3.42643 262.313 3.36918C262.37 3.31193 262.466 3.28331 262.599 3.28331C262.752 3.26423 262.971 3.25468 263.258 3.25468H271.559C273.334 3.25468 275.022 3.27377 276.625 3.31193C278.247 3.3501 279.745 3.47414 281.119 3.68405C282.512 3.87488 283.772 4.18021 284.898 4.60004C286.024 5.00078 286.978 5.57327 287.76 6.31751C288.562 7.04267 289.172 7.95865 289.592 9.06547C290.031 10.1723 290.251 11.5367 290.251 13.1588ZM287.818 13.1588C287.818 11.2696 287.464 9.79063 286.758 8.72198C286.071 7.63424 285.041 6.83276 283.667 6.31751C282.293 5.78319 280.595 5.45878 278.572 5.34428C276.549 5.2107 274.211 5.14391 271.559 5.14391H264.632V20.3149H275.366C277.026 20.3149 278.61 20.2386 280.118 20.0859C281.625 19.9333 282.942 19.6089 284.068 19.1127C285.213 18.5975 286.119 17.8723 286.787 16.9372C287.474 16.0022 287.818 14.7427 287.818 13.1588Z" stroke="#FAFBFF" stroke-width="3.4822" mask="url(#path-1-outside-1_141_1302)"/>
<path d="M255.222 34.1406C255.222 34.4268 255.174 34.6368 255.078 34.7703C254.983 34.9039 254.849 34.9993 254.678 35.0566C254.525 35.1138 254.334 35.1425 254.105 35.1425C253.876 35.1425 253.619 35.1425 253.332 35.1425H226.597C226.406 35.1425 226.263 35.1329 226.168 35.1138C226.072 35.0947 225.996 35.047 225.939 34.9707C225.9 34.8944 225.872 34.799 225.853 34.6845C225.853 34.5509 225.853 34.3696 225.853 34.1406V4.60004C225.853 4.31379 225.853 4.0848 225.853 3.91305C225.872 3.7413 225.91 3.60772 225.967 3.51231C226.024 3.41689 226.12 3.3501 226.253 3.31193C226.406 3.27377 226.626 3.25468 226.912 3.25468H253.046C253.332 3.25468 253.599 3.25468 253.848 3.25468C254.096 3.25468 254.315 3.28331 254.506 3.34056C254.716 3.39781 254.878 3.49322 254.993 3.6268C255.107 3.76039 255.164 3.9703 255.164 4.25654C255.164 4.48554 255.107 4.66683 254.993 4.80041C254.878 4.91491 254.716 5.00078 254.506 5.05803C254.315 5.11528 254.096 5.14391 253.848 5.14391C253.599 5.14391 253.332 5.14391 253.046 5.14391H228.286V17.6815H252.903C253.323 17.6815 253.676 17.7387 253.962 17.8532C254.248 17.9677 254.391 18.2158 254.391 18.5975C254.391 19.0173 254.267 19.294 254.019 19.4276C253.79 19.5611 253.485 19.6279 253.103 19.6279H228.286V33.2532H253.103C253.39 33.2532 253.657 33.2532 253.905 33.2532C254.153 33.2532 254.372 33.2819 254.563 33.3391C254.773 33.3964 254.935 33.4918 255.05 33.6253C255.164 33.7398 255.222 33.9116 255.222 34.1406Z" stroke="#FAFBFF" stroke-width="3.4822" mask="url(#path-1-outside-1_141_1302)"/>
<path d="M196.863 31.1636L214.611 4.48554C214.897 4.04663 215.183 3.73176 215.469 3.54093C215.775 3.3501 216.07 3.25468 216.357 3.25468C216.719 3.25468 217.015 3.40735 217.244 3.71268C217.492 3.99892 217.616 4.3615 217.616 4.80041V33.1387C217.616 33.6921 217.549 34.1692 217.416 34.57C217.282 34.9516 216.939 35.1425 216.385 35.1425C215.908 35.1425 215.584 34.9516 215.412 34.57C215.259 34.1692 215.183 33.6921 215.183 33.1387V7.72012L198.266 32.6807C197.808 33.3296 197.34 33.654 196.863 33.654C196.348 33.654 195.881 33.3296 195.461 32.6807L178.544 7.72012V33.1387C178.544 33.6921 178.458 34.1692 178.286 34.57C178.133 34.9516 177.819 35.1425 177.341 35.1425C176.788 35.1425 176.445 34.9516 176.311 34.57C176.177 34.1692 176.111 33.6921 176.111 33.1387V4.80041C176.111 4.3615 176.225 3.99892 176.454 3.71268C176.702 3.40735 177.008 3.25468 177.37 3.25468C177.637 3.25468 177.914 3.3501 178.2 3.54093C178.506 3.73176 178.811 4.04663 179.116 4.48554L196.863 31.1636Z" stroke="#FAFBFF" stroke-width="3.4822" mask="url(#path-1-outside-1_141_1302)"/>
<path d="M147.179 31.1636L164.926 4.48554C165.212 4.04663 165.498 3.73176 165.785 3.54093C166.09 3.3501 166.386 3.25468 166.672 3.25468C167.034 3.25468 167.33 3.40735 167.559 3.71268C167.807 3.99892 167.931 4.3615 167.931 4.80041V33.1387C167.931 33.6921 167.865 34.1692 167.731 34.57C167.597 34.9516 167.254 35.1425 166.7 35.1425C166.223 35.1425 165.899 34.9516 165.727 34.57C165.575 34.1692 165.498 33.6921 165.498 33.1387V7.72012L148.581 32.6807C148.123 33.3296 147.656 33.654 147.179 33.654C146.663 33.654 146.196 33.3296 145.776 32.6807L128.859 7.72012V33.1387C128.859 33.6921 128.773 34.1692 128.601 34.57C128.449 34.9516 128.134 35.1425 127.657 35.1425C127.103 35.1425 126.76 34.9516 126.626 34.57C126.493 34.1692 126.426 33.6921 126.426 33.1387V4.80041C126.426 4.3615 126.54 3.99892 126.769 3.71268C127.017 3.40735 127.323 3.25468 127.685 3.25468C127.952 3.25468 128.229 3.3501 128.515 3.54093C128.821 3.73176 129.126 4.04663 129.431 4.48554L147.179 31.1636Z" stroke="#FAFBFF" stroke-width="3.4822" mask="url(#path-1-outside-1_141_1302)"/>
<path d="M118.875 19.2343C118.875 22.0201 118.455 24.453 117.616 26.5328C116.795 28.5935 115.517 30.3108 113.78 31.6846C112.063 33.0584 109.878 34.0888 107.226 34.7757C104.593 35.4435 101.464 35.7774 97.8382 35.7774C94.2129 35.7774 91.0741 35.4435 88.4219 34.7757C85.7887 34.0888 83.6135 33.0584 81.8962 31.6846C80.1789 30.3108 78.9005 28.5935 78.061 26.5328C77.2405 24.453 76.8303 22.0201 76.8303 19.2343C76.8303 16.4485 77.2405 14.0253 78.061 11.9645C78.9005 9.88474 80.1789 8.15792 81.8962 6.7841C83.6135 5.41028 85.7887 4.38946 88.4219 3.72163C91.0741 3.03472 94.2129 2.69126 97.8382 2.69126C101.464 2.69126 104.593 3.03472 107.226 3.72163C109.878 4.38946 112.063 5.41028 113.78 6.7841C115.517 8.15792 116.795 9.88474 117.616 11.9645C118.455 14.0253 118.875 16.4485 118.875 19.2343ZM79.2631 19.2343C79.2631 21.9057 79.6447 24.1667 80.4079 26.0176C81.1711 27.8684 82.316 29.3853 83.8425 30.5684C85.388 31.7323 87.3247 32.5814 89.6526 33.1156C91.9804 33.6308 94.709 33.8884 97.8382 33.8884C100.968 33.8884 103.696 33.6308 106.024 33.1156C108.352 32.5814 110.288 31.7323 111.834 30.5684C113.38 29.3853 114.534 27.8684 115.297 26.0176C116.06 24.1667 116.442 21.9057 116.442 19.2343C116.442 16.5821 116.06 14.3306 115.297 12.4797C114.534 10.6098 113.38 9.09288 111.834 7.92895C110.288 6.74594 108.352 5.89684 106.024 5.38166C103.696 4.8474 100.968 4.58027 97.8382 4.58027C94.709 4.58027 91.9804 4.8474 89.6526 5.38166C87.3247 5.89684 85.388 6.74594 83.8425 7.92895C82.316 9.09288 81.1711 10.6098 80.4079 12.4797C79.6447 14.3306 79.2631 16.5821 79.2631 19.2343Z" stroke="#FAFBFF" stroke-width="3.4822" mask="url(#path-1-outside-1_141_1302)"/>
<path d="M34.9908 19.2343C34.9908 16.2577 35.4392 13.7295 36.336 11.6497C37.2519 9.55082 38.6066 7.84309 40.4002 6.52651C42.1938 5.19085 44.4263 4.21773 47.0976 3.60714C49.788 2.99656 52.9077 2.69126 56.4568 2.69126C58.9373 2.69126 61.3415 2.92023 63.6693 3.37817C65.9972 3.81703 68.3632 4.53256 70.7674 5.52477C71.0727 5.65833 71.2921 5.83006 71.4257 6.03995C71.5592 6.23076 71.626 6.42157 71.626 6.61237C71.626 6.84134 71.5402 7.04169 71.3684 7.21342C71.1967 7.38515 70.9773 7.47101 70.7101 7.47101C70.6338 7.47101 70.4526 7.42331 70.1663 7.32791C67.972 6.41203 65.7014 5.72511 63.3545 5.26717C61.0075 4.80923 58.7083 4.58026 56.4568 4.58026C53.0604 4.58026 50.1601 4.86648 47.7559 5.4389C45.3517 5.99225 43.3769 6.86997 41.8313 8.07206C40.3048 9.25507 39.1886 10.772 38.4826 12.6228C37.7766 14.4546 37.4236 16.6584 37.4236 19.2343C37.4236 21.8103 37.7766 24.0236 38.4826 25.8745C39.1886 27.7062 40.3048 29.2232 41.8313 30.4253C43.3769 31.6083 45.3517 32.486 47.7559 33.0584C50.1601 33.6117 53.0604 33.8884 56.4568 33.8884C58.7083 33.8884 61.0075 33.6595 63.3545 33.2015C65.7014 32.7436 67.972 32.0567 70.1663 31.1408C70.319 31.0645 70.4907 31.0263 70.6815 31.0263C70.9677 31.0263 71.1967 31.1122 71.3684 31.2839C71.5592 31.4556 71.6546 31.656 71.6546 31.8849C71.6546 32.0757 71.5879 32.2666 71.4543 32.4574C71.3207 32.6482 71.0918 32.8104 70.7674 32.9439C68.3441 33.9361 65.9686 34.6612 63.6407 35.1191C61.3319 35.558 58.9373 35.7774 56.4568 35.7774C52.9077 35.7774 49.788 35.4721 47.0976 34.8615C44.4263 34.251 42.1938 33.2874 40.4002 31.9708C38.6066 30.6351 37.2519 28.9274 36.336 26.8476C35.4392 24.7487 34.9908 22.211 34.9908 19.2343Z" stroke="#FAFBFF" stroke-width="3.4822" mask="url(#path-1-outside-1_141_1302)"/>
<path d="M31.2223 34.8043C31.3177 34.6707 31.3654 34.4609 31.3654 34.1746C31.3654 33.9457 31.3082 33.774 31.1937 33.6595C31.0792 33.5259 30.917 33.4305 30.7071 33.3733C30.5163 33.316 30.2969 33.2874 30.0488 33.2874H4.43281V5.18132H29.9916C30.2396 5.18132 30.4591 5.1527 30.6499 5.09546C30.8598 5.03821 31.0219 4.95235 31.1364 4.83787C31.2509 4.7043 31.3082 4.52303 31.3082 4.29406C31.3082 4.00785 31.2509 3.79796 31.1364 3.66439C31.0219 3.53083 30.8598 3.43543 30.6499 3.37818C30.4591 3.32094 30.2396 3.29232 29.9916 3.29232H3.05899C2.77277 3.29232 2.55334 3.3114 2.4007 3.34956C2.26713 3.38772 2.17173 3.45451 2.11449 3.54991C2.05724 3.64531 2.01908 3.77888 2 3.95061V34.7184C2.01908 34.8329 2.0477 34.9283 2.08586 35.0047C2.14311 35.081 2.21943 35.1287 2.31483 35.1478C2.41024 35.1668 2.55334 35.1764 2.74415 35.1764H30.2492C30.4781 35.1764 30.669 35.1478 30.8216 35.0905C30.9933 35.0333 31.1269 34.9379 31.2223 34.8043Z" stroke="#FAFBFF" stroke-width="3.4822" mask="url(#path-1-outside-1_141_1302)"/>
<path d="M35.6776 17.8892C35.3914 17.7747 35.0384 17.7174 34.6186 17.7174H17.2406C17.0084 17.746 16.5441 17.9693 16.5441 18.6333C16.5441 19.2973 17.0084 19.5969 17.2406 19.6637H34.819C35.2006 19.6637 35.5059 19.5969 35.7348 19.4633C35.9829 19.3298 36.1069 19.0531 36.1069 18.6333C36.1069 18.2517 35.9638 18.0036 35.6776 17.8892Z" stroke="#FAFBFF" stroke-width="3.4822" mask="url(#path-1-outside-1_141_1302)"/>
</svg>
